<?xml version="1.0" encoding="UTF-8"?>
<svg version="1.1" xmlns="http://www.w3.org/2000/svg" width="64" height="64">
<path d="M0 0 C1.19992332 -0.00786278 1.19992332 -0.00786278 2.42408752 -0.0158844 C4.11091963 -0.02228922 5.79779648 -0.02098756 7.48461914 -0.01245117 C10.05501448 -0.00394395 12.62318347 -0.03271648 15.19335938 -0.06445312 C16.83723892 -0.06606551 18.48112238 -0.0654869 20.125 -0.0625 C21.26901527 -0.07935097 21.26901527 -0.07935097 22.43614197 -0.09654236 C27.59160428 -0.02975869 30.58993786 0.96414255 34.62890625 4.43359375 C38.05428008 8.56132987 38.08230752 12.64504836 38.0625 17.8046875 C38.06774185 18.60463638 38.0729837 19.40458527 38.0783844 20.22877502 C38.08478922 21.91560713 38.08348756 23.60248398 38.07495117 25.28930664 C38.06644395 27.85970198 38.09521648 30.42787097 38.12695312 32.99804688 C38.12856551 34.64192642 38.1279869 36.28580988 38.125 37.9296875 C38.14185097 39.07370277 38.14185097 39.07370277 38.15904236 40.24082947 C38.09225869 45.39629178 37.09835745 48.39462536 33.62890625 52.43359375 C29.50117013 55.85896758 25.41745164 55.88699502 20.2578125 55.8671875 C19.45786362 55.87242935 18.65791473 55.8776712 17.83372498 55.8830719 C16.14689287 55.88947672 14.46001602 55.88817506 12.77319336 55.87963867 C10.20279802 55.87113145 7.63462903 55.89990398 5.06445312 55.93164062 C3.42057358 55.93325301 1.77669012 55.9326744 0.1328125 55.9296875 C-0.62986435 55.94092148 -1.3925412 55.95215546 -2.17832947 55.96372986 C-7.33379178 55.89694619 -10.33212536 54.90304495 -14.37109375 51.43359375 C-17.79646758 47.30585763 -17.82449502 43.22213914 -17.8046875 38.0625 C-17.80992935 37.26255112 -17.8151712 36.46260223 -17.8205719 35.63841248 C-17.82697672 33.95158037 -17.82567506 32.26470352 -17.81713867 30.57788086 C-17.80863145 28.00748552 -17.83740398 25.43931653 -17.86914062 22.86914062 C-17.87075301 21.22526108 -17.8701744 19.58137762 -17.8671875 17.9375 C-17.87842148 17.17482315 -17.88965546 16.4121463 -17.90122986 15.62635803 C-17.83444619 10.47089572 -16.84054495 7.47256214 -13.37109375 3.43359375 C-9.24335763 0.00821992 -5.15963914 -0.01980752 0 0 Z " fill="#124067" transform="translate(22.37109375,4.56640625)"/>
<path d="M0 0 C2.64 0 5.28 0 8 0 C10.64 4.95 13.28 9.9 16 15 C16.33 10.05 16.66 5.1 17 0 C18.98 0 20.96 0 23 0 C23 8.58 23 17.16 23 26 C20.36 26 17.72 26 15 26 C12.36 20.72 9.72 15.44 7 10 C6.67 15.28 6.34 20.56 6 26 C4.02 26 2.04 26 0 26 C0 17.42 0 8.84 0 0 Z " fill="#F8F9FA" transform="translate(20,19)"/>
</svg>
